REM DIRINDEX 1\2,1\3,1\4,1\5
REM DIRNAME cjc004,folder01,folder02,folder03,folder04
TITLE ""
FILE "1Q_t_1287-1296.mp3" MP3
  TRACK 01 AUDIO
    TITLE "3:cjc004_4766"
    INDEX 01 00:00:00
  TRACK 02 AUDIO
    TITLE "0:"
    INDEX 01 00:01:03
  TRACK 03 AUDIO
    TITLE "4:cjc004_4767"
    INDEX 01 00:01:28
  TRACK 04 AUDIO
    TITLE "0:"
    INDEX 01 00:03:02
  TRACK 05 AUDIO
    TITLE "5:cjc004_4768"
    INDEX 01 00:03:25
  TRACK 06 AUDIO
    TITLE "0:"
    INDEX 01 00:07:52
  TRACK 07 AUDIO
    TITLE "3:cjc004_4769"
    INDEX 01 00:08:34
  TRACK 08 AUDIO
    TITLE "0:"
    INDEX 01 00:09:47
  TRACK 09 AUDIO
    TITLE "4:cjc004_4770"
    INDEX 01 00:09:73
  TRACK 10 AUDIO
    TITLE "0:"
    INDEX 01 00:11:44
  TRACK 11 AUDIO
    TITLE "5:cjc004_4771"
    INDEX 01 00:11:68
  TRACK 12 AUDIO
    TITLE "0:"
    INDEX 01 00:16:34
  TRACK 13 AUDIO
    TITLE "3:cjc004_4772"
    INDEX 01 00:17:12
  TRACK 14 AUDIO
    TITLE "0:"
    INDEX 01 00:18:17
  TRACK 15 AUDIO
    TITLE "4:cjc004_4773"
    INDEX 01 00:18:46
  TRACK 16 AUDIO
    TITLE "0:"
    INDEX 01 00:19:54
  TRACK 17 AUDIO
    TITLE "5:cjc004_4774"
    INDEX 01 00:20:00
  TRACK 18 AUDIO
    TITLE "0:"
    INDEX 01 00:25:33
  TRACK 19 AUDIO
    TITLE "3:cjc004_4775"
    INDEX 01 00:26:09
  TRACK 20 AUDIO
    TITLE "0:"
    INDEX 01 00:27:14
  TRACK 21 AUDIO
    TITLE "4:cjc004_4776"
    INDEX 01 00:27:41
  TRACK 22 AUDIO
    TITLE "0:"
    INDEX 01 00:28:74
  TRACK 23 AUDIO
    TITLE "5:cjc004_4777"
    INDEX 01 00:29:27
  TRACK 24 AUDIO
    TITLE "0:"
    INDEX 01 00:34:32
  TRACK 25 AUDIO
    TITLE "3:cjc004_4778"
    INDEX 01 00:35:23
  TRACK 26 AUDIO
    TITLE "0:"
    INDEX 01 00:36:54
  TRACK 27 AUDIO
    TITLE "4:cjc004_4779"
    INDEX 01 00:37:01
  TRACK 28 AUDIO
    TITLE "0:"
    INDEX 01 00:38:18
  TRACK 29 AUDIO
    TITLE "5:cjc004_4780"
    INDEX 01 00:38:39
  TRACK 30 AUDIO
    TITLE "0:"
    INDEX 01 00:42:59
  TRACK 31 AUDIO
    TITLE "3:cjc004_4781"
    INDEX 01 00:43:29
  TRACK 32 AUDIO
    TITLE "0:"
    INDEX 01 00:44:54
  TRACK 33 AUDIO
    TITLE "4:cjc004_4782"
    INDEX 01 00:45:06
  TRACK 34 AUDIO
    TITLE "0:"
    INDEX 01 00:46:68
  TRACK 35 AUDIO
    TITLE "5:cjc004_4783"
    INDEX 01 00:47:15
  TRACK 36 AUDIO
    TITLE "0:"
    INDEX 01 00:51:48
  TRACK 37 AUDIO
    TITLE "3:cjc004_4784"
    INDEX 01 00:52:26
  TRACK 38 AUDIO
    TITLE "0:"
    INDEX 01 00:53:37
  TRACK 39 AUDIO
    TITLE "4:cjc004_4785"
    INDEX 01 00:53:60
  TRACK 40 AUDIO
    TITLE "0:"
    INDEX 01 00:55:20
  TRACK 41 AUDIO
    TITLE "5:cjc004_4786"
    INDEX 01 00:55:40
  TRACK 42 AUDIO
    TITLE "0:"
    INDEX 01 01:00:29
  TRACK 43 AUDIO
    TITLE "3:cjc004_4787"
    INDEX 01 01:01:03
  TRACK 44 AUDIO
    TITLE "0:"
    INDEX 01 01:02:05
  TRACK 45 AUDIO
    TITLE "4:cjc004_4788"
    INDEX 01 01:02:34
  TRACK 46 AUDIO
    TITLE "0:"
    INDEX 01 01:03:63
  TRACK 47 AUDIO
    TITLE "5:cjc004_4789"
    INDEX 01 01:04:13
  TRACK 48 AUDIO
    TITLE "0:"
    INDEX 01 01:08:70
  TRACK 49 AUDIO
    TITLE "3:cjc004_4790"
    INDEX 01 01:09:50
  TRACK 50 AUDIO
    TITLE "0:"
    INDEX 01 01:10:67
  TRACK 51 AUDIO
    TITLE "4:cjc004_4791"
    INDEX 01 01:11:21
  TRACK 52 AUDIO
    TITLE "0:"
    INDEX 01 01:12:62
  TRACK 53 AUDIO
    TITLE "5:cjc004_4792"
    INDEX 01 01:13:10
  TRACK 54 AUDIO
    TITLE "0:"
    INDEX 01 01:17:06
  TRACK 55 AUDIO
    TITLE "3:cjc004_4793"
    INDEX 01 01:17:59
  TRACK 56 AUDIO
    TITLE "0:"
    INDEX 01 01:18:74
  TRACK 57 AUDIO
    TITLE "4:cjc004_4794"
    INDEX 01 01:19:21
  TRACK 58 AUDIO
    TITLE "0:"
    INDEX 01 01:20:40
  TRACK 59 AUDIO
    TITLE "5:cjc004_4795"
    INDEX 01 01:20:67
  TRACK 60 AUDIO
    TITLE "0:"
    INDEX 01 01:25:21
